<?xml version="1.0" standalone="no"?>
<!DOCTYPE svg PUBLIC "-//W3C//DTD SVG 20010904//EN"
 "http://www.w3.org/TR/2001/REC-SVG-20010904/DTD/svg10.dtd">
<svg version="1.0" xmlns="http://www.w3.org/2000/svg"
 width="500.000000pt" height="500.000000pt" viewBox="0 0 500.000000 500.000000"
 preserveAspectRatio="xMidYMid meet">
<metadata>
Created by potrace 1.11, written by Peter Selinger 2001-2013
</metadata>
<g transform="translate(0.000000,500.000000) scale(0.100000,-0.100000)"
fill="#000000" stroke="none">
<path d="M2455 3736 c-416 -70 -748 -312 -933 -681 -91 -180 -127 -338 -127
-555 0 -111 5 -179 18 -240 55 -258 162 -456 346 -641 185 -184 383 -291 641
-346 118 -25 362 -25 480 0 224 48 427 148 583 288 l59 52 -123 123 -123 123
-35 -30 c-115 -96 -244 -165 -376 -200 -115 -32 -335 -32 -450 0 -264 71 -473
247 -591 494 -60 127 -77 212 -77 377 0 118 4 160 22 225 86 318 328 560 646
646 65 18 107 22 225 22 118 0 160 -4 225 -22 134 -36 254 -100 368 -195 l48
-40 122 123 122 122 -60 56 c-150 137 -361 242 -580 288 -107 23 -327 28 -430
11z"/>
</g>
</svg>
