<!-- Generator: Adobe Illustrator 21.0.0, SVG Export Plug-In  -->
<svg version="1.1"
	 xmlns="http://www.w3.org/2000/svg" xmlns:xlink="http://www.w3.org/1999/xlink" xmlns:a="http://ns.adobe.com/AdobeSVGViewerExtensions/3.0/"
	 x="0px" y="0px" width="200px" height="116.6px" viewBox="0 0 200 116.6" style="enable-background:new 0 0 200 116.6;"
	 xml:space="preserve">
<defs>
</defs>
<g id="down_1_">
	<path d="M100,116.6c1.7,0,3.3-0.7,4.6-2L198,21.2c1.3-1.3,2-2.9,2-4.6c0-1.7-0.7-3.3-2-4.6L188,2c-1.3-1.3-2.9-2-4.6-2
		c-1.7,0-3.3,0.7-4.6,2L100,80.8L21.2,2c-1.3-1.3-2.9-2-4.6-2c-1.7,0-3.3,0.7-4.6,2L2,12c-1.3,1.3-2,2.9-2,4.6c0,1.7,0.7,3.3,2,4.6
		l93.4,93.4C96.7,116,98.3,116.6,100,116.6z"/>
</g>
</svg>