<!-- Generator: Adobe Illustrator 21.0.0, SVG Export Plug-In  -->
<svg version="1.1"
	 xmlns="http://www.w3.org/2000/svg" xmlns:xlink="http://www.w3.org/1999/xlink" xmlns:a="http://ns.adobe.com/AdobeSVGViewerExtensions/3.0/"
	 x="0px" y="0px" width="200px" height="116.6px" viewBox="0 0 200 116.6" style="enable-background:new 0 0 200 116.6;"
	 xml:space="preserve">
<defs>
</defs>
<g id="up_1_">
	<path d="M100,0c-1.7,0-3.3,0.7-4.6,2L2,95.4c-1.3,1.3-2,2.9-2,4.6c0,1.7,0.7,3.3,2,4.6l10,10c1.3,1.3,2.9,2,4.6,2
		c1.7,0,3.3-0.7,4.6-2L100,35.9l78.8,78.8c1.3,1.3,2.9,2,4.6,2s3.3-0.7,4.6-2l10-10c1.3-1.3,2-2.9,2-4.6c0-1.7-0.7-3.3-2-4.6
		L104.6,2C103.3,0.7,101.7,0,100,0z"/>
</g>
</svg>