<!-- Generator: Adobe Illustrator 21.0.0, SVG Export Plug-In  -->
<svg version="1.1"
	 xmlns="http://www.w3.org/2000/svg" xmlns:xlink="http://www.w3.org/1999/xlink" xmlns:a="http://ns.adobe.com/AdobeSVGViewerExtensions/3.0/"
	 x="0px" y="0px" width="200px" height="200px" viewBox="0 0 200 200" style="enable-background:new 0 0 200 200;"
	 xml:space="preserve">
<style type="text/css">
	.st0{fill:#3B5998;}
</style>
<defs>
</defs>
<path id="facebook_1_" class="st0" d="M189.6,0H11.6C5.5,0,0,4.9,0,11v177.9C0,195,5.5,200,11.6,200H107v-77H81V92h26V70.1
	c0-25.8,15.7-39.9,38.8-39.9c11,0,21.2,0.8,23.2,1.2v27l-16,0c-12.5,0-15,6-15,14.7V92h30.5l-3.9,31H138v77h51.6
	c6.1,0,10.4-5,10.4-11.1V11C200,4.9,195.7,0,189.6,0z"/>
</svg>