<!-- Generator: Adobe Illustrator 21.0.0, SVG Export Plug-In  -->
<svg version="1.1"
	 xmlns="http://www.w3.org/2000/svg" xmlns:xlink="http://www.w3.org/1999/xlink" xmlns:a="http://ns.adobe.com/AdobeSVGViewerExtensions/3.0/"
	 x="0px" y="0px" width="226.5px" height="200px" viewBox="0 0 226.5 200" style="enable-background:new 0 0 226.5 200;"
	 xml:space="preserve">
<style type="text/css">
	.st0{fill:#6CC655;}
</style>
<defs>
</defs>
<path id="feedly_1_" class="st0" d="M130.8,7.3c-9.7-9.7-25.5-9.7-35.2,0L7.3,95.6c-9.7,9.7-9.7,25.5,0,35.2l63.1,63.1
	c4.4,3.8,10.1,6.1,16.4,6.1h53c6.9,0,13.2-2.8,17.7-7.3l61.8-61.8c9.7-9.7,9.7-25.5,0-35.2L130.8,7.3z M66.6,124.6
	c-0.6,0.6-1.5,1-2.5,1h-7.6c-0.9,0-1.7-0.3-2.3-0.9l-9-9c-1.4-1.4-1.4-3.6,0-5l65.5-65.5c1.4-1.4,3.6-1.4,5,0l12.6,12.6
	c1.4,1.4,1.4,3.6,0,5L66.6,124.6z M128.3,168.7l-8.8,8.8c-0.6,0.6-1.5,1-2.5,1h-7.6c-0.9,0-1.7-0.3-2.3-0.9l-9-9
	c-1.4-1.4-1.4-3.6,0-5l12.6-12.6c1.4-1.4,3.6-1.4,5,0l12.6,12.6C129.7,165,129.7,167.3,128.3,168.7z M128.3,115.8L93.1,151
	c-0.6,0.6-1.5,1-2.5,1H83c-0.9,0-1.7-0.3-2.3-0.9l-9-9c-1.4-1.4-1.4-3.6,0-5l39.1-39.1c1.4-1.4,3.6-1.4,5,0l12.6,12.6
	C129.7,112.1,129.7,114.4,128.3,115.8z"/>
</svg>