<!-- Generator: Adobe Illustrator 21.0.0, SVG Export Plug-In  -->
<svg version="1.1"
	 xmlns="http://www.w3.org/2000/svg" xmlns:xlink="http://www.w3.org/1999/xlink" xmlns:a="http://ns.adobe.com/AdobeSVGViewerExtensions/3.0/"
	 x="0px" y="0px" width="140.5px" height="200px" viewBox="0 0 140.5 200" style="enable-background:new 0 0 140.5 200;"
	 xml:space="preserve">
<style type="text/css">
	.st0{fill:#0B0200;}
</style>
<defs>
</defs>
<path id="fire_1_" class="st0" d="M29.3,7.9c4.1,2.5,17.9,17.4,12.2,37.7C33,76.1,0,103.7,0,136.3c0,22.1,18.1,54.9,54.7,63.6
	c3.8,0.9,4.2-4.5,1.7-5c-3.8-0.8-23.2-8.2-23.5-38.1c-0.2-16,15.2-26.8,16.6-28c4.2-3.4,25-18.6,10.4-38.3c-1.6-2.2,0.8-3.2,4.3-2
	c2.7,1,17.6,11.9,15.5,25.5c-0.5,3.3-4.7,25.9,10.6,25.3s12.4-8.4,10.1-16.8c-2.1-7.8,1.9-5.2,4.2-2.2c0.8,1,28.6,27.8-10.4,65.7
	c-1.5,1.5-1.5,3.3-0.5,4.5c1,1.3,3,2,5.2,1.2c3.5-1.2,41.7-13.6,41.7-65.7c0-57.6-37.7-73.8-37.7-73.8s-1.1-1.1-3.1,0
	c-2,1.1,0,4.3,0,4.3s13.8,22,2,26.5c-14,5.3-14.1-14.5-19.8-40.8C76.3,15.8,50.5,0,30.6,0C26.6,0,21.6,3.1,29.3,7.9z"/>
</svg>