<!-- Generator: Adobe Illustrator 21.0.0, SVG Export Plug-In  -->
<svg version="1.1"
	 xmlns="http://www.w3.org/2000/svg" xmlns:xlink="http://www.w3.org/1999/xlink" xmlns:a="http://ns.adobe.com/AdobeSVGViewerExtensions/3.0/"
	 x="0px" y="0px" width="205.1px" height="200px" viewBox="0 0 205.1 200" style="enable-background:new 0 0 205.1 200;"
	 xml:space="preserve">
<style type="text/css">
	.st0{fill-rule:evenodd;clip-rule:evenodd;fill:#191313;}
</style>
<defs>
</defs>
<path id="github_1_" class="st0" d="M102.5,0C45.9,0,0,45.9,0,102.5c0,45.3,29.4,83.7,70.1,97.3c5.1,0.9,7-2.2,7-4.9
	c0-2.4-0.1-8.9-0.1-17.4c-28.5,6.2-34.5-13.7-34.5-13.7c-4.7-11.8-11.4-15-11.4-15c-9.3-6.4,0.7-6.2,0.7-6.2
	c10.3,0.7,15.7,10.6,15.7,10.6c9.1,15.7,24,11.1,29.8,8.5c0.9-6.6,3.6-11.1,6.5-13.7c-22.8-2.6-46.7-11.4-46.7-50.7
	c0-11.2,4-20.3,10.6-27.5c-1.1-2.6-4.6-13,1-27.1c0,0,8.6-2.8,28.2,10.5c8.2-2.3,16.9-3.4,25.7-3.5c8.7,0,17.5,1.2,25.7,3.5
	c19.6-13.3,28.2-10.5,28.2-10.5c5.6,14.1,2.1,24.5,1,27.1c6.6,7.2,10.5,16.3,10.5,27.5c0,39.4-24,48.1-46.8,50.6c3.7,3.2,7,9.4,7,19
	c0,13.7-0.1,24.8-0.1,28.1c0,2.7,1.8,5.9,7.1,4.9c40.7-13.6,70.1-52,70.1-97.3C205.1,45.9,159.2,0,102.5,0z"/>
</svg>