<!-- Generator: Adobe Illustrator 21.0.0, SVG Export Plug-In  -->
<svg version="1.1"
	 xmlns="http://www.w3.org/2000/svg" xmlns:xlink="http://www.w3.org/1999/xlink" xmlns:a="http://ns.adobe.com/AdobeSVGViewerExtensions/3.0/"
	 x="0px" y="0px" width="200px" height="200px" viewBox="0 0 200 200" style="enable-background:new 0 0 200 200;"
	 xml:space="preserve">
<style type="text/css">
	.st0{fill:#008FDE;}
</style>
<defs>
</defs>
<g id="hatena_1_">
	<path class="st0" d="M85.9,91.8c2.2-1.3,3.3-3.6,3.3-6.8c0-3.3-1-5.6-3.1-7C84,76.7,80,76,74.1,76H69v18h4.8
		C79.6,94,83.7,93.1,85.9,91.8z"/>
	<path class="st0" d="M89.6,111.3c-2.1-1.5-6.1-2.3-11.9-2.3H69v19h8.3c5.6,0,9.6-0.6,12-2c2.4-1.4,3.5-3.8,3.5-7.1
		C92.8,115.3,91.8,112.7,89.6,111.3z"/>
	<path class="st0" d="M170.4,0H99.8H29.2C13,0,0,13.5,0,29.7v70.6v70.6C0,187.2,13,200,29.2,200h70.6h70.6
		c16.2,0,29.6-12.8,29.6-29.1v-70.6V29.7C200,13.5,186.6,0,170.4,0z M129,56h21v59h-21V56z M112.5,131.4c-2,3.5-4.8,6.3-8.4,8.2
		c-3,1.6-6.6,2.7-11,3.4c-4.4,0.7-11.5,1-21.5,1H47V57h23.8c9.9,0,16.7,0.1,20.7,0.8c3.9,0.6,7.3,1.6,10.1,3.2
		c3.2,1.8,5.7,4.1,7.4,7.1c1.7,3,2.5,6.5,2.5,10.4c0,5-1.3,8.9-3.8,11.8c-2.5,2.9-6.6,5.1-12.1,6.7c6.2,0.5,11.1,2.7,14.5,6.6
		c3.5,3.9,5.2,9.1,5.2,15.6C115.4,123.7,114.4,127.8,112.5,131.4z M139.5,144.5c-6.5,0-11.8-5.3-11.8-11.8c0-6.5,5.3-11.8,11.8-11.8
		c6.5,0,11.8,5.3,11.8,11.8C151.3,139.2,146,144.5,139.5,144.5z"/>
</g>
</svg>