<!-- Generator: Adobe Illustrator 21.0.0, SVG Export Plug-In  -->
<svg version="1.1"
	 xmlns="http://www.w3.org/2000/svg" xmlns:xlink="http://www.w3.org/1999/xlink" xmlns:a="http://ns.adobe.com/AdobeSVGViewerExtensions/3.0/"
	 x="0px" y="0px" width="233.3px" height="200px" viewBox="0 0 233.3 200" style="enable-background:new 0 0 233.3 200;"
	 xml:space="preserve">
<defs>
</defs>
<g id="link_1_">
	<g>
		<path d="M179.2,116.7h-8.3c-1.2,0-2.2,0.4-3,1.2c-0.8,0.8-1.2,1.8-1.2,3v41.7c0,5.7-2,10.6-6.1,14.7c-4.1,4.1-9,6.1-14.7,6.1H37.5
			c-5.7,0-10.6-2-14.7-6.1c-4.1-4.1-6.1-9-6.1-14.7V54.2c0-5.7,2-10.6,6.1-14.7c4.1-4.1,9-6.1,14.7-6.1h91.7c1.2,0,2.2-0.4,3-1.2
			c0.8-0.8,1.2-1.8,1.2-3v-8.3c0-1.2-0.4-2.2-1.2-3c-0.8-0.8-1.8-1.2-3-1.2H37.5c-10.3,0-19.2,3.7-26.5,11C3.7,35,0,43.8,0,54.2
			v108.3c0,10.3,3.7,19.2,11,26.5c7.3,7.3,16.2,11,26.5,11h108.3c10.3,0,19.2-3.7,26.5-11c7.3-7.3,11-16.2,11-26.5v-41.7
			c0-1.2-0.4-2.2-1.2-3C181.4,117.1,180.4,116.7,179.2,116.7z"/>
		<path d="M230.9,2.5C229.2,0.8,227.3,0,225,0h-66.7c-2.3,0-4.2,0.8-5.9,2.5c-1.6,1.6-2.5,3.6-2.5,5.9s0.8,4.2,2.5,5.9l22.9,22.9
			L90.5,122c-0.9,0.9-1.3,1.9-1.3,3c0,1.1,0.4,2.1,1.3,3l14.8,14.8c0.9,0.9,1.9,1.3,3,1.3c1.1,0,2.1-0.4,3-1.3l84.9-84.9l22.9,22.9
			c1.6,1.6,3.6,2.5,5.9,2.5c2.3,0,4.2-0.8,5.9-2.5c1.6-1.6,2.5-3.6,2.5-5.9V8.3C233.3,6.1,232.5,4.1,230.9,2.5z"/>
	</g>
</g>
</svg>