<!-- Generator: Adobe Illustrator 21.0.0, SVG Export Plug-In  -->
<svg version="1.1"
	 xmlns="http://www.w3.org/2000/svg" xmlns:xlink="http://www.w3.org/1999/xlink" xmlns:a="http://ns.adobe.com/AdobeSVGViewerExtensions/3.0/"
	 x="0px" y="0px" width="200px" height="200px" viewBox="0 0 200 200" style="enable-background:new 0 0 200 200;"
	 xml:space="preserve">
<defs>
</defs>
<path id="search_1_" d="M200,191.2l-53.6-53.6c12.6-14.6,20.2-33.5,20.2-54.3c0-46-37.3-83.3-83.3-83.3S0,37.3,0,83.3
	s37.3,83.3,83.3,83.3c20.8,0,39.7-7.6,54.3-20.2l53.6,53.6L200,191.2z M13.3,83.3c0-38.7,31.3-70,70-70s70,31.3,70,70
	c0,19.3-7.8,36.8-20.5,49.5l0,0c-12.7,12.7-30.2,20.5-49.5,20.5C44.7,153.3,13.3,122,13.3,83.3z"/>
</svg>