<!-- Generator: Adobe Illustrator 21.0.0, SVG Export Plug-In  -->
<svg version="1.1"
	 xmlns="http://www.w3.org/2000/svg" xmlns:xlink="http://www.w3.org/1999/xlink" xmlns:a="http://ns.adobe.com/AdobeSVGViewerExtensions/3.0/"
	 x="0px" y="0px" width="200px" height="200px" viewBox="0 0 200 200" style="enable-background:new 0 0 200 200;"
	 xml:space="preserve">
<defs>
</defs>
<path id="share_1_" d="M170,140c-9.3,0-17.6,4.3-23.1,11l-87.9-43.9c0.6-2.3,0.9-4.6,0.9-7.1c0-2.5-0.4-4.8-0.9-7.1L146.9,49
	c5.5,6.7,13.7,11,23.1,11c16.6,0,30-13.4,30-30c0-16.6-13.4-30-30-30s-30,13.4-30,30c0,2.5,0.4,4.8,0.9,7.1L53.1,81
	C47.6,74.3,39.3,70,30,70C13.4,70,0,83.4,0,100c0,16.6,13.4,30,30,30c9.3,0,17.6-4.3,23.1-11l87.9,43.9c-0.6,2.3-0.9,4.6-0.9,7.1
	c0,16.6,13.4,30,30,30s30-13.4,30-30C200,153.4,186.6,140,170,140z"/>
</svg>