<!-- Generator: Adobe Illustrator 21.0.0, SVG Export Plug-In  -->
<svg version="1.1"
	 xmlns="http://www.w3.org/2000/svg" xmlns:xlink="http://www.w3.org/1999/xlink" xmlns:a="http://ns.adobe.com/AdobeSVGViewerExtensions/3.0/"
	 x="0px" y="0px" width="246.1px" height="200px" viewBox="0 0 246.1 200" style="enable-background:new 0 0 246.1 200;"
	 xml:space="preserve">
<style type="text/css">
	.st0{fill:#55ACEE;}
</style>
<defs>
</defs>
<path id="twitter_1_" class="st0" d="M246.1,23.7c-9.1,4-18.8,6.7-29,8c10.4-6.2,18.4-16.1,22.2-27.9c-9.8,5.8-20.6,10-32.1,12.3
	C198,6.1,184.9,0,170.4,0c-27.9,0-50.5,22.6-50.5,50.5c0,4,0.4,7.8,1.3,11.5C79.2,59.9,42,39.8,17.1,9.2c-4.3,7.5-6.8,16.1-6.8,25.4
	c0,17.5,8.9,33,22.5,42c-8.3-0.3-16.1-2.5-22.9-6.3c0,0.2,0,0.4,0,0.6c0,24.5,17.4,44.9,40.5,49.5c-4.2,1.2-8.7,1.8-13.3,1.8
	c-3.3,0-6.4-0.3-9.5-0.9c6.4,20.1,25.1,34.7,47.2,35.1C57.5,169.9,35.7,178,12,178c-4.1,0-8.1-0.2-12-0.7
	C22.3,191.6,48.9,200,77.4,200c92.9,0,143.7-76.9,143.7-143.7c0-2.2,0-4.4-0.1-6.5C230.8,42.7,239.3,33.8,246.1,23.7z"/>
</svg>